# xmcd
#
# Track frame offsets: 
#        150
#        20323
#        37107
#        55654
#        71090
#        90233
#        103737
#        123423
#        141284
#        164337
#        181660
#        201316
#        218508
#        235408
#        256346
#        273504
#
# Disc length: 3899 seconds
#
# Revision: 1
# Processed by: cddbd v1.5.2PL0 Copyright (c) Steve Scherf et al.
# Submitted via: ExactAudioCopy v1.3
#
DISCID=e10f3910
DTITLE=陳百強 Danny - 陳百強 Danny Chan LPCD 45
DYEAR=2009
DGENRE=Country
TTITLE0=煙雨淒迷
TTITLE1=冬戀
TTITLE2=感情到老
TTITLE3=痴心眼內藏
TTITLE4=夢裡人
TTITLE5=冰封的心
TTITLE6=我的故事
TTITLE7=凝望
TTITLE8=至愛
TTITLE9=迷失中有著你
TTITLE10=不再流淚
TTITLE11=昨夜夢見你
TTITLE12=飛越彩虹
TTITLE13=傷得幾多次
TTITLE14=眼淚為你流
TTITLE15=留住夕陽
EXTD=
EXTT0=
EXTT1=
EXTT2=
EXTT3=
EXTT4=
EXTT5=
EXTT6=
EXTT7=
EXTT8=
EXTT9=
EXTT10=
EXTT11=
EXTT12=
EXTT13=
EXTT14=
EXTT15=
PLAYORDER=
